<svg xmlns="http://www.w3.org/2000/svg" viewBox="0 0 282.48 282.93"><defs><style>.cls-1{fill:#fff;}.cls-1,.cls-8{stroke:#063;}.cls-1,.cls-10,.cls-8,.cls-9{stroke-miterlimit:10;}.cls-2{fill:#7d4e24;}.cls-3{fill:#432918;}.cls-4{fill:#ca9e67;}.cls-10,.cls-5,.cls-8{fill:none;}.cls-6{fill:#063;}.cls-7{fill:#683c11;}.cls-10,.cls-8,.cls-9{stroke-width:2px;}.cls-9{fill:#008d36;}.cls-10,.cls-9{stroke:#008d36;}</style></defs><title>coffeeShopLogoРесурс 6</title><g id="Слой_2" data-name="Слой 2"><g id="Слой_1-2" data-name="Слой 1"><circle class="cls-1" cx="141.24" cy="141.11" r="140.61"/><path class="cls-2" d="M205.79,130.38c2.9,8.6-10.89,25.44-29.47,37.25l-1.48.93C157,179.61,127.42,198,105.67,187.88c-.38-.18-4.15-3-11.7-8.64-2.09-1.56-3.82-2.86-5.29-4a61.36,61.36,0,0,0,14.08-4.59,50.55,50.55,0,0,0,9.23-5.48l91.67-39.55.3-.09,0,.12C204.7,127.92,205.45,129.39,205.79,130.38Z"/><path class="cls-3" d="M204,125.53l-.3.09a106.43,106.43,0,0,0-16.62.1,108.89,108.89,0,0,0-42.44,12.61c-18.14,9.87-22.34,19.16-32.61,26.84L88.67,175.23c-4.38-3.4-6.37-5.34-8.16-8.25l-.07-.13.51-.31a63.1,63.1,0,0,0,17.85-5.23c18.44-8.59,20.11-19,41.84-32.33,12.49-7.63,21.7-10,25.65-10.9,9.38-2.09,14.07-3.13,19.09-1.85,3.54.91,8.26,3,14.21,1.58a18.21,18.21,0,0,0,4.22-1.58l.43.15c-.46,1.88-1.38,3.28-1.07,6A17.41,17.41,0,0,0,204,125.53Z"/><path class="cls-2" d="M203.66,125.62,112,165.17c10.27-7.68,14.47-17,32.61-26.84A108.89,108.89,0,0,1,187,125.72,106.43,106.43,0,0,1,203.66,125.62Z"/><path class="cls-2" d="M204.24,116.38l-.43-.15a18.21,18.21,0,0,1-4.22,1.58c-6,1.42-10.67-.67-14.21-1.58-5-1.28-9.71-.24-19.09,1.85-3.95.88-13.16,3.27-25.65,10.9-21.73,13.29-23.4,23.74-41.84,32.33A63.1,63.1,0,0,1,81,166.54l-.51.31a28.2,28.2,0,0,1-3.68-10.2c-3.06-17.32,9.66-38.91,27.24-49.92,16.32-10.24,30.78-12.34,55.05-13.94,5.87-.39,19.56-1,32.47,5.75a27.14,27.14,0,0,1,10.83,10.06c1.22,2.11,2.17,3.77,2.12,6.06A8.73,8.73,0,0,1,204.24,116.38Z"/><path class="cls-3" d="M88.67,175.23,112,165.17a50.55,50.55,0,0,1-9.23,5.48,61.36,61.36,0,0,1-14.08,4.59Z"/><path class="cls-3" d="M88.68,175.24l-.06,0,0,0Z"/><path class="cls-4" d="M189.59,103.19c.25-.88-2.18-2.28-4.25-3.49-3.88-2.24-8.05-3.34-14.7-3.86a92.08,92.08,0,0,0-13.92,0A145.31,145.31,0,0,0,137,98.16c-7.25,1.45-20.26,4-33.65,13.15-6.75,4.59-19,13.14-22.43,27.45-1,4-1.29,8.62-.39,8.9,1.23.38,3.52-7.5,10.45-16.63a71.33,71.33,0,0,1,10.82-11.22,79.49,79.49,0,0,1,19.73-13.14c10.38-4.68,19.34-5.32,27.07-5.81C171.68,99.42,188.93,105.5,189.59,103.19Z"/><path class="cls-5" d="M85.32,161.92l10.4,13"/><path class="cls-4" d="M195.65,146.51a41.15,41.15,0,0,1-9.48,10.67,78.69,78.69,0,0,1-10.93,7.63,134.76,134.76,0,0,1-17.38,9.61c-7.55,3.39-15.34,5.88-15.53,5.4s8.83-3.64,21.32-11.19a172.5,172.5,0,0,0,25-19.22,47.86,47.86,0,0,0,5.79-6.19c3.41-4.42,4.71-7.83,5.07-7.68S198.82,141.12,195.65,146.51Z"/><path class="cls-6" d="M46.3,62.57l3.86-3.82L63.93,72.68l.14-.14c-.28-1.87-.35-3.68-.44-5.33l-1-20.82,4.92-4.86.55,23.59,28.91,4.15L92.37,73.9,67.7,70.23l.12,6.39,10.77,10.9-3.86,3.82Z"/><path class="cls-6" d="M101.79,54.25,101.54,68l-5.42,1.85,1.34-43.2,6.31-2.15,27.69,33.26-5.61,1.92L117.05,49Zm12.76-8.81-8.3-9.94c-1.75-2.12-3-3.9-4.3-5.67l-.12,0c.11,2.21.19,4.45.14,7l-.41,13Z"/><path class="cls-6" d="M146,18.84l-2.5,16.61,22,3.32,2.5-16.61,5.4.81-6,40-5.41-.82,2.83-18.78-22-3.32L140,58.83l-5.4-.81,6-40Z"/><path class="cls-6" d="M181.46,71.79,192.73,30.3l4.85,3.4-5.85,20.64c-1.66,5.86-3,10.57-4.63,15l.1.06c3.65-2.93,8-5.89,12.79-9.12l18.12-12.2,4.76,3.34L186.45,75.28Z"/><path class="cls-6" d="M236.43,69.34,204,93.52l-3.27-4.39L233.17,65Z"/><text/><path class="cls-6" d="M63.36,163.26l2.51,4.82-17.39,9,.1.18c1.86.28,3.62.76,5.22,1.15L74,183.68l3.19,6.14-22.71-6.46L41.94,209.74l-3-5.85,10.8-22.46-6.14-1.79L30,186.7l-2.5-4.82Z"/><path class="cls-6" d="M69,218.55,57.5,226.08l-4.58-3.44,36.44-23.22,5.33,4L82.8,245.05l-4.75-3.56,3.83-13.26Zm14.46,5.59L87,211.68c.77-2.64,1.52-4.7,2.26-6.76l-.09-.07c-1.77,1.34-3.57,2.67-5.69,4.05l-11,7Z"/><path class="cls-6" d="M114.09,213.83l-4.15,22.55c-1.74,9.43,1.94,14.46,8.08,15.59,6.69,1.22,11.85-2.32,13.57-11.63l4.15-22.55,5.38,1L137,241.07c-2.37,12.86-10.5,16.88-20,15.13-8.83-1.61-14.81-7.74-12.38-20.94l4.13-22.41Z"/><path class="cls-6" d="M148.24,218a70.55,70.55,0,0,1,10.55-3.75c5.4-1.48,9.61-1.3,12.63.16a10.88,10.88,0,0,1,5.86,7.2,11.73,11.73,0,0,1-.92,9.37c-2.09,3.61-6.24,6.27-11.65,7.76a18.91,18.91,0,0,1-4.9.85l4.27,15.52-5.24,1.44Zm10.41,17.36a18.28,18.28,0,0,0,5.12-.83c6.7-1.83,9.8-6,8.35-11.23-1.53-5.54-6.49-6.52-12.21-5a32,32,0,0,0-5.41,2Z"/><path class="cls-6" d="M179.24,207.84a71.23,71.23,0,0,1,8.18-7.65c4.36-3.51,8.28-5,11.63-4.89a10.9,10.9,0,0,1,8.25,4.26,11.79,11.79,0,0,1,2.89,9c-.48,4.16-3.23,8.25-7.6,11.78a18.82,18.82,0,0,1-4.14,2.74l10.1,12.53L204.32,239Zm16.46,11.78a18.7,18.7,0,0,0,4.36-2.81c5.41-4.35,6.61-9.38,3.18-13.63-3.61-4.48-8.55-3.39-13.16.33a31.44,31.44,0,0,0-4.18,4Z"/><path class="cls-6" d="M228,197.4l9,10.39-2.81,5-27.81-33.06,3.26-5.82,42.83,6.32-2.9,5.17-13.65-2Zm3.63-15.07-12.81-1.87c-2.72-.41-4.86-.89-7-1.35l-.06.1c1.56,1.58,3.11,3.19,4.77,5.11l8.38,10Z"/><path class="cls-7" d="M240.47,109.07c.32.46.58.9.9,1.32s.57.82.87,1.2a25.58,25.58,0,0,0,1.79,2.09,26.57,26.57,0,0,0,3.78,3.12,22.54,22.54,0,0,1,4.69,4.59,21.33,21.33,0,0,1,1.91,3.08,27.44,27.44,0,0,1,1.34,3.32,31.37,31.37,0,0,1,.8,3.29l.23,1.53c.07.55.14,1.14.18,1.71a22.71,22.71,0,0,1-.52,6.8,19.8,19.8,0,0,1-6.71,11.13l-.55-.23a35.59,35.59,0,0,0,1.68-5.5,33,33,0,0,0,.8-5.67,27.79,27.79,0,0,0-.31-5.69A40.5,40.5,0,0,0,250,129.6a21.13,21.13,0,0,0-2.32-5.15,37.28,37.28,0,0,0-3.54-4.51,17.27,17.27,0,0,1-3.15-5,18.13,18.13,0,0,1-1.15-5.8Z"/><path class="cls-7" d="M229.13,106.17c2.53,4.23,4.48,8.06,6.63,11.59,1.07,1.75,2.12,3.45,3.25,5.07.56.82,1.11,1.62,1.71,2.41s1.19,1.63,1.87,2.54,1.37,1.95,2.06,3.16a20.44,20.44,0,0,1,1.72,4,19.88,19.88,0,0,1,.73,8.28A20.42,20.42,0,0,1,240,156.35l-.55-.26a35.91,35.91,0,0,0,2.1-6.28,24.81,24.81,0,0,0,.73-6.52,19.25,19.25,0,0,0-1.25-6.38,23.52,23.52,0,0,0-3.33-5.62,46.18,46.18,0,0,1-6.48-11.86,47.32,47.32,0,0,1-1.84-6.51,55.93,55.93,0,0,1-.88-6.69Z"/><circle class="cls-8" cx="141.24" cy="141.69" r="140.24"/><path class="cls-9" d="M50.67,108.3c-3.32,10.68-5.76,18.52-13,24.47-4.63,3.81-9,1.84-12.15,6.07A11.08,11.08,0,0,0,24,141.93a25.72,25.72,0,0,1-2.19-5.22c-.52-1.82-2.81-9.72.49-16.09,5.23-10.1,19.54-6.87,27.42-19.05,1-1.58,2.53-4.33,3.12-4.1C53.88,97.9,50.8,107.88,50.67,108.3Z"/><path class="cls-10" d="M24,141.93a26.48,26.48,0,0,0,2,3.11,28.22,28.22,0,0,0,10.61,8.74"/></g></g></svg>